<?xml version="1.0" encoding="UTF-8" standalone="no"?><!DOCTYPE svg PUBLIC "-//W3C//DTD SVG 1.1//EN" "http://www.w3.org/Graphics/SVG/1.1/DTD/svg11.dtd"><svg width="100%" height="100%" viewBox="0 0 1800 300" version="1.1" xmlns="http://www.w3.org/2000/svg" xmlns:xlink="http://www.w3.org/1999/xlink" xml:space="preserve" style="fill-rule:evenodd;clip-rule:evenodd;stroke-linejoin:round;stroke-miterlimit:1.41421;"><path d="M351.226,152.002c0,-7.206 8.646,-16.212 17.112,-16.212c13.33,0 20.355,11.888 20.355,35.846c0,25.398 -9.367,35.305 -20.715,35.305c-9.006,0 -16.752,-9.547 -16.752,-18.553l0,-36.386Zm0,-66.828l-32.063,0l0,2.342l11.168,0l0,121.766l-11.348,0l0,2.342l29.721,0l2.522,-13.329c2.162,7.385 12.069,15.311 25.758,15.311c18.554,0 34.765,-11.529 34.765,-42.691c0,-31.342 -19.274,-42.15 -35.485,-42.15c-11.528,0 -21.976,7.746 -25.038,14.951l0,-58.542Z" style="fill:#841cce;fill-rule:nonzero;"/><path d="M416.613,236.122c0,7.385 4.503,12.789 12.969,12.789c14.05,0 21.796,-16.572 28.46,-33.144c6.665,-16.572 22.696,-65.747 28.1,-82.499l10.088,0l0,-2.341l-23.597,0l0,2.341l10.807,0l-18.373,55.66l-24.137,-55.66l10.808,0l0,-2.341l-43.952,0l0,2.341l10.088,0c0,0 27.019,62.505 34.584,79.797c1.621,3.603 1.621,5.224 0.361,8.466c-5.404,12.609 -10.808,19.454 -14.411,21.435c1.261,-1.981 1.982,-4.142 1.982,-6.484c0,-6.845 -5.224,-12.069 -12.069,-12.069c-6.665,0 -11.708,5.584 -11.708,11.709Z" style="fill:#841cce;fill-rule:nonzero;"/><path d="M548.287,205.68c-1.261,1.261 -3.603,2.882 -6.665,2.882c-3.603,0 -6.305,-2.162 -7.205,-6.305c-0.901,-3.422 -0.901,-6.844 -0.901,-12.428l0,-56.201l16.752,0l0,-2.701l-16.752,0l0,-29.542l-2.522,0c-1.08,7.386 -9.907,13.33 -18.373,13.51l0,16.032l-11.888,0l0,2.701l11.888,0l0,39.809c0,7.745 0,17.472 0.901,23.056c2.161,14.411 11.888,17.113 20.895,17.113c8.106,0 13.149,-3.603 15.131,-6.485l-1.261,-1.441Z" style="fill:#841cce;fill-rule:nonzero;"/><path d="M628.624,185.686c-2.882,9.366 -12.069,17.832 -23.777,17.832c-18.193,0 -24.678,-19.273 -24.678,-35.485l8.106,0c28.641,-0.18 41.61,-3.422 41.61,-16.932c0,-14.59 -16.212,-23.237 -32.063,-23.237c-21.796,0 -39.989,17.473 -39.989,43.231c0,25.038 14.05,42.871 38.908,42.871c19.634,0 32.423,-13.69 34.585,-27.74l-2.702,-0.54Zm-31.523,-55.12c9.367,0 12.069,9.907 12.069,18.373c0,12.789 -6.485,16.572 -20.895,16.752c-2.341,0 -7.025,0 -8.286,-0.18c0,-25.938 10.268,-34.945 17.112,-34.945Z" style="fill:#841cce;fill-rule:nonzero;"/><path d="M699.054,135.25c-8.826,-4.323 -19.274,-6.665 -27.74,-6.665c-15.31,0 -28.82,9.547 -28.82,25.578c0,15.311 10.627,21.435 26.659,26.659c9.727,3.242 19.454,7.205 19.454,17.112c0,8.827 -7.746,13.87 -16.392,13.87c-14.59,0 -23.056,-12.068 -25.938,-29.541l-2.702,0.18l0.72,26.839c6.305,2.702 19.814,5.224 28.821,5.224c16.752,0 31.162,-10.808 31.162,-27.379c0,-16.392 -9.547,-23.057 -26.839,-28.641c-11.348,-3.783 -19.994,-6.845 -19.994,-16.211c0,-7.566 6.844,-10.808 14.95,-10.808c12.609,0 19.814,9.006 23.237,25.578l2.702,-0.36l0.72,-21.435Z" style="fill:#841cce;fill-rule:nonzero;"/><rect x="712.924" y="219.55" width="83.219" height="2.882" style="fill:#841cce;fill-rule:nonzero;"/><path d="M810.194,150.741c0,6.845 4.863,12.068 11.167,12.068c6.665,0 12.069,-5.043 12.069,-11.168c0,-6.664 -5.404,-12.068 -12.069,-12.068c-1.801,0 -3.422,0.36 -4.863,1.08c3.242,-4.323 10.087,-8.285 17.472,-8.285c8.467,0 15.131,3.962 16.933,10.987c0.9,3.063 1.26,7.566 1.26,12.609l0,10.448c-26.659,1.441 -47.373,9.727 -47.373,26.839c0,14.05 12.429,20.355 26.839,20.355c10.087,0 18.013,-4.504 21.795,-11.168c1.622,6.304 7.746,11.168 16.392,11.168c10.448,0 14.41,-6.125 15.491,-10.988l-2.342,-0.721c-0.72,2.522 -2.341,4.864 -4.683,4.864c-3.783,0 -5.224,-2.882 -5.224,-10.088l0,-20.174c0,-10.988 -0.18,-20.174 -1.08,-24.678c-2.702,-14.95 -15.491,-23.056 -32.424,-23.056c-18.733,0 -29.36,10.628 -29.36,21.976Zm27.379,58.181c-8.646,0 -11.348,-7.745 -11.348,-16.031c0,-14.23 9.187,-22.336 25.938,-23.957l0,17.832c0,3.783 0,7.926 0.361,10.448c-0.18,4.863 -7.746,11.708 -14.951,11.708Z" style="fill:#841cce;fill-rule:nonzero;"/><path d="M902.599,209.282l-11.168,0l0,2.342l41.25,0l0,-2.342l-9.187,0l0,-56.38c0,-9.006 9.547,-15.851 17.473,-15.851c13.87,0 16.752,12.429 16.932,22.516c0.18,5.584 0.18,9.727 0.18,16.572l0,33.143l-9.187,0l0,2.342l41.25,0l0,-2.342l-11.168,0l0,-30.081c0,-7.385 0,-14.951 -0.36,-21.075c-0.901,-20.715 -12.609,-28.641 -28.1,-28.641c-13.15,0 -24.318,7.746 -27.38,15.311l-1.981,-13.869l-29.722,0l0,2.341l11.168,0l0,76.014Z" style="fill:#841cce;fill-rule:nonzero;"/><path d="M1060.03,188.388c0,9.006 -7.926,18.553 -16.932,18.553c-10.808,0 -20.535,-9.367 -20.535,-35.305c0,-23.958 7.205,-35.846 20.355,-35.846c8.285,0 17.112,8.826 17.112,16.212l0,36.386Zm0,-44.672c-2.882,-7.025 -13.33,-14.951 -25.038,-14.951c-16.392,0 -35.485,10.628 -35.485,42.15c0,30.982 16.031,42.691 34.764,42.691c13.33,0 23.417,-7.566 25.759,-15.311l2.522,13.329l29.721,0l0,-2.342l-11.168,0l0,-124.108l-34.225,0l0,2.342l13.15,0l0,56.2Z" style="fill:#841cce;fill-rule:nonzero;"/><rect x="1100.38" y="219.55" width="83.219" height="2.882" style="fill:#841cce;fill-rule:nonzero;"/><path d="M1223.95,143.716l-1.982,-12.789l-30.081,0l0,2.341l11.168,0l0,118.165l-11.168,0l0,2.521l43.051,0l0,-2.521l-10.988,0l0,-50.436c3.062,7.025 13.87,12.609 25.398,12.609c18.553,0 34.404,-11.529 34.404,-42.691c0,-31.342 -18.733,-42.15 -34.945,-42.15c-11.708,0 -21.795,7.746 -24.857,14.951Zm0,8.286c0,-7.386 8.466,-16.212 16.752,-16.212c13.149,0 19.994,11.888 19.994,35.846c0,25.578 -8.646,35.845 -19.274,35.845c-9.547,0 -17.472,-7.565 -17.472,-14.41l0,-41.069Z" style="fill:#841cce;fill-rule:nonzero;"/><path d="M1305.01,133.268l0,76.014l-11.168,0l0,2.342l43.05,0l0,-2.342l-10.988,0l0,-78.355l-32.062,0l0,2.341l11.168,0Zm-2.162,-29.181c0,7.025 5.584,12.429 12.429,12.429c7.025,0 12.609,-5.584 12.609,-12.429c0,-7.025 -5.764,-12.428 -12.609,-12.428c-6.665,0 -12.429,5.403 -12.429,12.428Z" style="fill:#841cce;fill-rule:nonzero;"/><path d="M1419.75,185.686c-2.882,9.366 -12.068,17.832 -23.777,17.832c-18.193,0 -24.677,-19.273 -24.677,-35.485l8.106,0c28.64,-0.18 41.609,-3.422 41.609,-16.932c0,-14.59 -16.211,-23.237 -32.063,-23.237c-21.795,0 -39.988,17.473 -39.988,43.231c0,25.038 14.05,42.871 38.908,42.871c19.634,0 32.423,-13.69 34.584,-27.74l-2.702,-0.54Zm-31.522,-55.12c9.367,0 12.069,9.907 12.069,18.373c0,12.789 -6.485,16.572 -20.895,16.752c-2.342,0 -7.025,0 -8.286,-0.18c0,-25.938 10.267,-34.945 17.112,-34.945Z" style="fill:#841cce;fill-rule:nonzero;"/><path d="M1481.89,152.722c0,6.485 5.043,11.528 11.528,11.528c6.485,0 11.708,-5.223 11.708,-12.969c0,-11.348 -10.987,-23.237 -28.82,-23.237c-20.715,0 -41.07,16.572 -41.07,43.051c0,29.181 18.013,42.871 38.908,42.871c20.895,0 33.144,-15.671 34.045,-27.2l-2.702,-0.54c-1.982,8.286 -11.529,17.292 -22.877,17.292c-15.671,0 -25.038,-14.59 -25.038,-34.945c0,-22.155 12.429,-35.305 25.939,-35.305c7.926,0 14.05,4.503 16.752,9.727c-1.982,-1.261 -4.323,-1.981 -6.845,-1.981c-6.485,0 -11.528,5.223 -11.528,11.708Z" style="fill:#841cce;fill-rule:nonzero;"/><path d="M1590.87,185.686c-2.883,9.366 -12.069,17.832 -23.777,17.832c-18.193,0 -24.678,-19.273 -24.678,-35.485l8.106,0c28.64,-0.18 41.609,-3.422 41.609,-16.932c0,-14.59 -16.211,-23.237 -32.062,-23.237c-21.796,0 -39.989,17.473 -39.989,43.231c0,25.038 14.05,42.871 38.908,42.871c19.634,0 32.423,-13.69 34.584,-27.74l-2.701,-0.54Zm-31.523,-55.12c9.367,0 12.069,9.907 12.069,18.373c0,12.789 -6.485,16.572 -20.895,16.752c-2.342,0 -7.025,0 -8.286,-0.18c0,-25.938 10.267,-34.945 17.112,-34.945Z" style="fill:#841cce;fill-rule:nonzero;"/><path d="M1661.3,135.25c-8.827,-4.323 -19.274,-6.665 -27.74,-6.665c-15.311,0 -28.821,9.547 -28.821,25.578c0,15.311 10.628,21.435 26.659,26.659c9.727,3.242 19.454,7.205 19.454,17.112c0,8.827 -7.745,13.87 -16.391,13.87c-14.591,0 -23.057,-12.068 -25.939,-29.541l-2.702,0.18l0.721,26.839c6.304,2.702 19.814,5.224 28.82,5.224c16.752,0 31.162,-10.808 31.162,-27.379c0,-16.392 -9.546,-23.057 -26.839,-28.641c-11.348,-3.783 -19.994,-6.845 -19.994,-16.211c0,-7.566 6.845,-10.808 14.951,-10.808c12.609,0 19.814,9.006 23.236,25.578l2.702,-0.36l0.721,-21.435Z" style="fill:#841cce;fill-rule:nonzero;"/><path d="M137.826,34.348l100.158,57.826l0,115.652l-100.158,57.826l-100.157,-57.826l0,-115.652l100.157,-57.826Z" style="fill:url(#_Linear1);"/><defs><linearGradient id="_Linear1" x1="0" y1="0" x2="1" y2="0" gradientUnits="userSpaceOnUse" gradientTransform="matrix(134.653,213.194,-213.194,134.653,57.812,52.4581)"><stop offset="0%" style="stop-color:#e6ff00;stop-opacity:1"/><stop offset="43%" style="stop-color:#b1fe0f;stop-opacity:1"/><stop offset="100%" style="stop-color:#38fd32;stop-opacity:1"/><stop offset="100%" style="stop-color:#38fd32;stop-opacity:1"/></linearGradient></defs></svg>